<svg xmlns="http://www.w3.org/2000/svg" xmlns:xlink="http://www.w3.org/1999/xlink" width="1200px" height="1200px" viewBox="0 0 1200 1200">
    <g id="466fc1b1-d7cb-4ecd-9a8a-2216dee3d096">
<g style="">
		<g id="466fc1b1-d7cb-4ecd-9a8a-2216dee3d096-child-0">
<path style="stroke: rgb(193,193,193); stroke-opacity: 1.00; stroke-width: 0; stroke-dasharray: none; stroke-linecap: butt; stroke-dashoffset: 0; stroke-linejoin: miter; stroke-miterlimit: 4; fill: rgb(0,115,93); fill-opacity: 1.00; fill-rule: nonzero; opacity: 1;" transform="matrix(1.171881 0 0 1.171872 600.000133 600.000116) matrix(1 0 0 1 0 0)  translate(-512.213478, -498.418912)" d="M 504.30 798.04 C 497.50 793.89 498.00 808.87 498.00 610.86 L 498.00 431.62 L 500.25 428.32 C 506.21 419.56 519.40 420.05 525.01 429.24 C 526.97 432.46 526.99 434.65 527.00 610.80 C 527.00 806.61 527.48 791.90 520.96 797.38 C 517.00 800.72 509.19 801.02 504.30 798.04 Z M 446.50 745.14 C 444.85 744.12 442.60 742.27 441.50 741.04 C 439.53 738.82 439.50 737.19 439.24 612.06 L 438.98 485.33 L 441.26 481.91 C 443.89 477.98 449.16 475.00 453.52 475.00 C 457.69 475.00 463.07 478.07 465.75 482.00 L 468.00 485.30 L 468.00 611.00 L 468.00 736.70 L 465.73 740.10 C 461.44 746.53 452.53 748.86 446.50 745.14 Z M 564.50 745.14 C 562.85 744.12 560.60 742.27 559.50 741.04 C 557.53 738.82 557.50 737.19 557.24 612.06 L 556.98 485.33 L 559.26 481.91 C 565.58 472.45 579.58 473.26 584.38 483.38 C 585.85 486.48 586.00 498.54 586.00 611.75 L 586.00 736.70 L 583.73 740.10 C 579.44 746.53 570.53 748.86 564.50 745.14 Z M 239.00 727.88 C 212.04 723.53 188.25 711.35 169.00 692.03 C 144.72 667.67 131.74 636.05 131.84 601.50 C 131.96 556.78 155.16 516.34 194.15 492.91 C 203.37 487.37 219.69 480.74 228.59 478.91 L 234.68 477.67 L 235.84 459.58 C 237.27 437.27 238.99 425.62 243.57 407.17 C 251.34 375.83 263.65 347.86 281.51 321.00 C 292.84 303.96 301.15 293.84 316.49 278.38 C 360.95 233.55 415.52 206.80 479.50 198.45 C 495.00 196.43 525.67 196.15 541.00 197.90 C 634.74 208.56 717.05 266.49 759.99 352.00 C 777.11 386.10 787.13 424.47 788.83 462.46 L 789.50 477.42 L 793.50 478.23 C 815.46 482.70 838.81 495.66 856.02 512.94 C 873.81 530.80 885.12 551.74 890.62 577.00 C 893.23 589.05 893.25 616.28 890.64 627.50 C 882.60 662.14 864.46 689.14 836.62 707.92 C 814.96 722.53 790.80 729.44 763.47 728.82 C 749.37 728.50 749.10 728.46 744.83 725.46 C 742.45 723.78 739.38 720.41 738.00 717.96 L 735.50 713.50 L 734.95 582.50 C 734.36 441.03 734.58 446.91 728.98 423.10 C 722.28 394.58 707.81 363.54 690.50 340.55 C 654.81 293.12 603.33 262.47 544.00 253.32 C 528.14 250.88 495.77 250.90 480.50 253.35 C 415.73 263.79 362.51 297.75 326.91 351.36 C 309.89 377.00 299.14 404.01 292.84 437.00 C 290.67 448.38 290.64 449.93 290.07 581.00 C 289.44 727.07 289.98 715.75 283.36 722.37 C 277.52 728.20 274.48 729.01 258.79 728.88 C 250.93 728.82 242.02 728.37 239.00 727.88 Z M 387.50 702.14 C 385.85 701.12 383.60 699.27 382.50 698.04 C 380.54 695.83 380.49 694.18 380.23 612.07 L 379.97 528.35 L 382.25 524.92 C 386.95 517.90 396.20 516.16 403.02 521.02 C 409.22 525.43 409.00 522.13 409.00 611.22 C 409.00 686.61 408.87 692.75 407.25 695.98 C 403.59 703.26 394.11 706.22 387.50 702.14 Z M 623.50 702.14 C 621.85 701.12 619.60 699.27 618.50 698.04 C 616.54 695.83 616.49 694.18 616.23 612.07 L 615.97 528.35 L 618.25 524.92 C 620.89 520.98 626.16 518.00 630.52 518.00 C 634.69 518.00 640.07 521.07 642.75 525.00 L 645.00 528.30 L 645.00 610.90 C 644.99 691.56 644.95 693.58 643.01 696.76 C 638.88 703.52 629.79 706.03 623.50 702.14 Z M 327.30 656.04 C 321.03 652.22 321.00 651.98 321.00 610.92 C 321.00 575.63 321.10 573.57 322.98 570.54 C 328.99 560.81 344.54 562.23 348.96 572.91 C 349.73 574.75 349.98 587.24 349.79 612.87 L 349.50 650.15 L 345.29 654.07 C 341.49 657.62 340.56 658.00 335.79 658.00 C 332.31 657.99 329.41 657.32 327.30 656.04 Z M 681.30 656.04 C 675.03 652.22 675.00 651.98 675.00 610.92 C 675.00 575.38 675.09 573.59 677.02 570.47 C 681.37 563.43 693.08 561.83 698.97 567.48 C 700.56 568.99 702.35 571.44 702.96 572.91 C 703.72 574.75 703.98 587.15 703.79 612.54 C 703.51 647.70 703.40 649.63 701.50 652.17 C 700.40 653.63 698.31 655.54 696.85 656.42 C 693.13 658.63 685.24 658.44 681.30 656.04 Z" stroke-linecap="round"></path>
</g>
</g>
</g>

  </svg>